<svg id="Capa_1" data-name="Capa 1" xmlns="http://www.w3.org/2000/svg" xmlns:xlink="http://www.w3.org/1999/xlink" viewBox="0 0 970.21 554.05"><defs><style>.cls-1{fill:none;stroke:#a8c3f5;stroke-miterlimit:10;stroke-width:60px;}.cls-2{fill:url(#Degradado_sin_nombre_17);}</style><linearGradient id="Degradado_sin_nombre_17" x1="25" y1="454.8" x2="923.94" y2="454.8" gradientUnits="userSpaceOnUse"><stop offset="0" stop-color="#a8c3f5"/><stop offset="1" stop-color="#a8c3f5"/></linearGradient></defs><polyline class="cls-1" points="949 383.21 835.6 269.81 722.2 383.21"/><path class="cls-2" d="M820.79,547.19C812.36,606,752.9,639.1,697.22,639.1,596.75,639.1,554,542.56,554,457.67c0-123.06,57.65-190.34,144.1-190.34,59.19,0,111.39,39.7,116.84,86.92h109C916.15,252,821.13,177.78,698.08,177.78c-167.45,0-254.68,122.43-254.68,275.08,0,68.51,20.64,134.54,57.67,185-34.2-4.11-67.64-10.23-93.75-19.31-90.5-31.48-183.62-112.67-173.13-112.67,184.94,9,211.1-88,211.1-143.27,0-85.67-63-150-158.8-150H25V730H129.27V303.1H268.58c53.74,0,75.55,28.74,75.55,69.24,0,39.72-21.81,68.47-79.45,68.47H147v86.56s42.58,90.53,193.45,150.18c169.19,66.89,329.86,53.1,329.86,53.1V730c2.53.08,5.06.14,7.62.14,58.5,0,200.3-30.69,223.12-181.83l-40.26-41.11Z" transform="translate(-25 -177.78)"/></svg>